<svg width="18" height="20" viewBox="0 0 18 20" fill="none" xmlns="http://www.w3.org/2000/svg">
<path d="M15.1011 4.63516C14.9745 4.56975 14.8513 4.49804 14.7319 4.42031C14.3848 4.1908 14.0665 3.92037 13.7839 3.61484C13.0768 2.80586 12.8128 1.98516 12.7155 1.41055H12.7194C12.6382 0.933594 12.6718 0.625 12.6769 0.625H9.45654V13.0773C9.45654 13.2445 9.45654 13.4098 9.44951 13.573C9.44951 13.5934 9.44755 13.6121 9.44638 13.634C9.44638 13.643 9.44638 13.6523 9.44443 13.6617C9.44443 13.6641 9.44443 13.6664 9.44443 13.6687C9.41048 14.1155 9.26726 14.5471 9.02736 14.9256C8.78746 15.304 8.45824 15.6177 8.06865 15.8391C7.66261 16.0701 7.20337 16.1912 6.73623 16.1906C5.23583 16.1906 4.01982 14.9672 4.01982 13.4562C4.01982 11.9453 5.23583 10.7219 6.73623 10.7219C7.02024 10.7216 7.30251 10.7663 7.57255 10.8543L7.57646 7.57539C6.75668 7.4695 5.92385 7.53465 5.13051 7.76673C4.33717 7.99882 3.60054 8.3928 2.96708 8.92383C2.41203 9.40609 1.9454 9.98152 1.58818 10.6242C1.45224 10.8586 0.93935 11.8004 0.877241 13.3289C0.838178 14.1965 1.09873 15.0953 1.22294 15.4668V15.4746C1.30107 15.6934 1.6038 16.4398 2.09716 17.0691C2.49499 17.5739 2.96501 18.0174 3.49208 18.3852V18.3773L3.4999 18.3852C5.05888 19.4445 6.7874 19.375 6.7874 19.375C7.08662 19.3629 8.08896 19.375 9.22724 18.8355C10.4897 18.2375 11.2085 17.3465 11.2085 17.3465C11.6677 16.8141 12.0328 16.2074 12.2882 15.5523C12.5796 14.7863 12.6769 13.8676 12.6769 13.5004V6.89414C12.7159 6.91758 13.2362 7.26172 13.2362 7.26172C13.2362 7.26172 13.9858 7.74219 15.1554 8.05508C15.9944 8.27773 17.1249 8.32461 17.1249 8.32461V5.12773C16.7288 5.1707 15.9245 5.0457 15.1011 4.63516Z" fill="white"/>
</svg>
